<?xml version="1.0" encoding="iso-8859-1"?>
<!-- Generator: Adobe Illustrator 19.0.0, SVG Export Plug-In . SVG Version: 6.00 Build 0)  -->
<svg version="1.1" id="Layer_1" xmlns="http://www.w3.org/2000/svg" xmlns:xlink="http://www.w3.org/1999/xlink" x="0px" y="0px"
	 viewBox="0 0 463 463" style="enable-background:new 0 0 463 463;" xml:space="preserve">
<g>
	<g>
		<g>
			<path d="M439.5,416h-13.878c3.202-5.18,4.832-11.178,4.648-17.426l-6.588-224c-0.435-14.806-10.813-26.833-24.682-29.841v-19.678
				c4.765-2.647,8-7.728,8-13.555v-16c0-9.6-7.439-18.075-20.948-23.864C374.563,66.712,359.451,64,343.5,64
				s-31.063,2.712-42.552,7.636C287.439,77.425,280,85.9,280,95.5v16c0,5.827,3.235,10.908,8,13.555v19.678
				c-13.869,3.008-24.246,15.035-24.682,29.841l-6.588,224c-0.184,6.248,1.445,12.246,4.648,17.426H239V77.766
				c9.29-3.138,16-11.93,16-22.266v-47c0-4.687-3.813-8.5-8.5-8.5h-30c-4.687,0-8.5,3.813-8.5,8.5v47
				c0,10.336,6.71,19.128,16,22.266V416h-22.378c3.202-5.18,4.832-11.178,4.648-17.426l-6.588-224
				c-0.435-14.806-10.813-26.833-24.682-29.841v-19.678c4.765-2.647,8-7.728,8-13.555v-16c0-9.6-7.439-18.075-20.948-23.864
				C150.563,66.712,135.451,64,119.5,64s-31.063,2.712-42.552,7.636C63.439,77.425,56,85.9,56,95.5v16
				c0,5.827,3.235,10.908,8,13.555v19.678c-13.869,3.008-24.246,15.035-24.682,29.841l-6.588,224
				c-0.184,6.248,1.445,12.246,4.648,17.426H23.5C10.542,416,0,426.542,0,439.5S10.542,463,23.5,463h416
				c12.958,0,23.5-10.542,23.5-23.5S452.458,416,439.5,416z M295,95.5c0-5.6,17.119-16.5,48.5-16.5c31.381,0,48.5,10.9,48.5,16.5v16
				c0,0.276-0.224,0.5-0.5,0.5h-96c-0.276,0-0.5-0.224-0.5-0.5V95.5z M384,127v17h-81v-17H384z M278.311,175.015
				c0.264-8.98,7.509-16.015,16.493-16.015h97.391c8.984,0,16.229,7.035,16.493,16.015l6.588,224
				c0.132,4.497-1.521,8.751-4.655,11.979c-3.134,3.228-7.338,5.006-11.838,5.006H288.216c-4.499,0-8.703-1.778-11.838-5.006
				c-3.134-3.228-4.788-7.482-4.655-11.979L278.311,175.015z M223,55.5V15h17v40.5c0,4.687-3.813,8.5-8.5,8.5S223,60.187,223,55.5z
				 M71,95.5C71,89.9,88.119,79,119.5,79S168,89.9,168,95.5v16c0,0.276-0.224,0.5-0.5,0.5h-96c-0.276,0-0.5-0.224-0.5-0.5V95.5z
				 M160,127v17H79v-17H160z M54.311,175.015C54.576,166.035,61.82,159,70.805,159h97.391c8.984,0,16.229,7.035,16.493,16.015
				l6.588,224c0.132,4.497-1.521,8.751-4.655,11.979c-3.134,3.228-7.338,5.006-11.838,5.006H64.216
				c-4.499,0-8.703-1.778-11.838-5.006c-3.134-3.228-4.788-7.482-4.655-11.979L54.311,175.015z M439.5,448h-416
				c-4.687,0-8.5-3.813-8.5-8.5s3.813-8.5,8.5-8.5h416c4.687,0,8.5,3.813,8.5,8.5S444.187,448,439.5,448z"/>
			<path d="M118.693,342.975c0.19,0.002,0.377,0.003,0.567,0.003c21.521,0,39.134-15.596,39.381-34.999
				c0.146-11.5-6.1-27.402-36.689-37.846c-18.371-6.272-20.393-15.064-20.316-21.132c0.137-10.801,8.198-17.994,20.102-17.994
				c0.126,0,0.252,0,0.378,0.002c9.869,0.125,15.606,6.226,17.521,11.411c1.436,3.886,5.749,5.874,9.634,4.438
				c3.886-1.435,5.873-5.749,4.438-9.634c-3.563-9.647-13.925-20.991-31.402-21.214c-20.431-0.25-35.425,13.535-35.67,32.8
				c-0.263,20.669,16.424,30.723,30.468,35.518c22.083,7.54,26.62,16.92,26.537,23.462c-0.144,11.303-11.286,20.34-24.758,20.187
				c-9.586-0.122-18.292-4.978-22.18-12.372c-1.927-3.666-6.462-5.075-10.128-3.148c-3.667,1.927-5.076,6.462-3.148,10.128
				C89.938,334.968,103.451,342.781,118.693,342.975z"/>
			<path d="M319.5,343c4.142,0,7.5-3.358,7.5-7.5v-37.613c6.218,3.325,13.228,5.113,20.5,5.113c23.986,0,43.5-19.514,43.5-43.5
				c0-23.986-19.514-43.5-43.5-43.5h-28c-4.142,0-7.5,3.358-7.5,7.5v112C312,339.642,315.358,343,319.5,343z M327,231h20.5
				c15.715,0,28.5,12.785,28.5,28.5c0,15.715-12.785,28.5-28.5,28.5c-7.8,0-15.14-3.142-20.5-8.699V231z"/>
		</g>
	</g>
</g>
<g>
</g>
<g>
</g>
<g>
</g>
<g>
</g>
<g>
</g>
<g>
</g>
<g>
</g>
<g>
</g>
<g>
</g>
<g>
</g>
<g>
</g>
<g>
</g>
<g>
</g>
<g>
</g>
<g>
</g>
</svg>
